<svg width="10" height="10" viewBox="0 0 10 10" fill="none" xmlns="http://www.w3.org/2000/svg">
<path d="M6.50219 7.03274L4.99959 8.53535C4.49872 9.03621 3.90947 9.28665 3.23182 9.28665C2.55418 9.28665 1.96492 9.03621 1.46406 8.53535C0.963189 8.03448 0.712755 7.44522 0.712755 6.76758C0.712755 6.08993 0.963189 5.50068 1.46406 4.99981L2.96666 3.49721L3.49699 4.02754L1.99439 5.53014C1.64083 5.88369 1.46406 6.29617 1.46406 6.76758C1.46406 7.23898 1.64083 7.65146 1.99439 8.00501C2.34794 8.35857 2.76042 8.53535 3.23182 8.53535C3.70323 8.53535 4.11571 8.35857 4.46926 8.00501L5.97186 6.50241L6.50219 7.03274ZM3.89474 6.635L3.36441 6.10467L6.10444 3.36463L6.63477 3.89496L3.89474 6.635ZM7.03252 6.50241L6.50219 5.97208L8.00479 4.46948C8.35835 4.11593 8.53512 3.70345 8.53512 3.23204C8.53512 2.76064 8.35835 2.34816 8.00479 1.99461C7.65124 1.64105 7.23876 1.46428 6.76736 1.46428C6.29595 1.46428 5.88347 1.64105 5.52992 1.99461L4.02732 3.49721L3.49699 2.96688L4.99959 1.46428C5.50046 0.96341 6.08971 0.712977 6.76736 0.712976C7.445 0.712976 8.03426 0.96341 8.53512 1.46428C9.03599 1.96514 9.28642 2.5544 9.28642 3.23204C9.28642 3.90969 9.03599 4.49894 8.53512 4.99981L7.03252 6.50241Z" fill="currentColor"/>
</svg>
