
<svg class="absolute inset-0 w-full h-full" width="470px" height="352px" viewBox="0 0 470 352" version="1.1" xmlns="http://www.w3.org/2000/svg" xmlns:xlink="http://www.w3.org/1999/xlink">
    <defs>
        <path d="M470,0 L470,352 L0,352 L0,0 L470,0 Z M291.535,3 L60.6077,3 C28.6667,3 2.773438,28.8919 2.773438,60.8313 C2.773438,92.7706 28.6667,118.663 60.6077,118.663 C28.6667,118.669 2.773438,144.561 2.773438,176.5 C2.773438,208.439 28.6667,234.331 60.6077,234.331 C28.6667,234.337 2.773438,260.229 2.773438,292.169 C2.773438,324.108 28.6667,350 60.6077,350 L299.607,350 L299.607,349.441 C327.727,345.515 349.369,321.369 349.369,292.169 C349.376,324.108 375.269,350 407.21,350 C439.151,350 465.044,324.108 465.044,292.169 L465.044,57.6178 L464.956,57.6178 C463.289,27.1732 438.072,3 407.21,3 C376.347,3 351.131,27.1732 349.463,57.6178 L349.369,57.6178 L349.369,60.831 L349.361252,59.8749521 C348.850535,28.3766512 323.15659,3 291.535,3 Z M349.369,60.831 L349.369,175.948 C349.369,145.917 326.477,121.232 297.19,118.39 C326.18413,115.57543 348.910521,91.3541039 349.362149,61.7306184 L349.369,60.831 Z M233.701,176.5 C233.701,176.408 233.701,176.316 233.702,176.224 C233.701,176.188 233.701,176.152 233.701,176.116 C233.701,176.06 233.701,176.004 233.701,175.948 C233.701,146.731 255.368,122.575 283.511,118.669 L60.6077,118.669 C92.5486,118.669 118.442,144.561 118.442,176.5 C118.442,208.439 92.5486,234.331 60.6077,234.331 L233.701,234.331 L233.701,176.5 Z" id="path-d7emuk4zwv-1"></path>
    </defs>
    <g id="Page-1" stroke="none" stroke-width="1" fill="none" fill-rule="evenodd">
        <g id="Artboard">
            <mask id="mask-d7emuk4zwv-2" fill="white">
                <use xlink:href="#path-d7emuk4zwv-1"></use>
            </mask>
            <use id="Shape" fill="currentColor" xlink:href="#path-d7emuk4zwv-1"></use>
        </g>
    </g>
</svg>
