<svg width="210" height="210" viewBox="0 0 210 210" fill="none" xmlns="http://www.w3.org/2000/svg">
<rect x="210" y="140" width="140" height="70" rx="35" transform="rotate(180 210 140)" fill="#0092D1"/>
<path d="M140 35C140 54.33 155.67 70 175 70C194.33 70 210 54.33 210 35C210 15.67 194.33 3.12974e-06 175 2.2848e-06C155.67 1.43986e-06 140 15.67 140 35Z" fill="#B3B7B9"/>
<path d="M70 175C70 155.67 54.33 140 35 140C15.67 140 7.12452e-06 155.67 4.5897e-06 175C2.05488e-06 194.33 15.67 210 35 210C54.33 210 70 194.33 70 175Z" fill="#00205B"/>
<path d="M140 105C140 124.33 155.67 140 175 140C194.33 140 210 124.33 210 105C210 85.67 194.33 70 175 70C155.67 70 140 85.67 140 105Z" fill="#C8102E"/>
<path d="M-1.5299e-06 35C-2.37484e-06 54.33 15.67 70 35 70C54.33 70 70 54.33 70 35C70 15.67 54.33 3.12974e-06 35 2.2848e-06C15.67 1.43986e-06 -6.84959e-07 15.67 -1.5299e-06 35Z" fill="black"/>
<path d="M140 175C140 155.67 124.33 140 105 140C85.67 140 70 155.67 70 175C70 194.33 85.67 210 105 210C124.33 210 140 194.33 140 175Z" fill="#FF0000"/>
</svg>
