<svg width="749" height="76" viewBox="0 0 749 76" fill="none" xmlns="http://www.w3.org/2000/svg">
<title>Knowledge For Reform Action In The Western Balkans</title>
<path d="M15.4499 28.9549H22.5686L10.5216 14.8688L22.1384 1.63407H15.2544L5.90618 12.5856H5.71061V1.63407H0V28.9549H5.71061V17.6937H5.94529L15.4499 28.9549Z" fill="currentColor"/>
<path d="M52.7052 29.7288L52.7443 29.7675V1.63407H46.9164V15.5654L46.9555 16.7263L45.8994 15.5654L29.6672 0.976208L29.589 0.898813V28.9549H35.4169V14.1335L35.3387 13.1274L36.1601 14.0174L52.7052 29.7288Z" fill="currentColor"/>
<path d="M75.9962 6.16174C81.081 6.16174 84.3274 10.3024 84.3274 15.3332C84.3274 20.3639 81.081 24.5046 75.9962 24.5046C70.8723 24.5046 67.6259 20.3639 67.6259 15.3332C67.6259 10.3024 70.8723 6.16174 75.9962 6.16174ZM75.9962 1.131C68.017 1.131 61.6023 7.24529 61.6023 15.3332C61.6023 23.4211 68.017 29.5353 75.9962 29.5353C83.9363 29.5353 90.351 23.4211 90.351 15.3332C90.351 7.24529 83.9754 1.131 75.9962 1.131Z" fill="currentColor"/>
<path d="M121.989 29.8062L133.645 1.63407H127.426L122.419 14.7914L121.676 16.8811L120.816 14.714L114.558 0.898813L108.495 14.9075L107.713 16.8811L107.009 14.9075L101.728 1.63407H95.5482L107.243 29.8062L113.853 15.2171L114.558 13.3209L115.301 15.1784L121.989 29.8062Z" fill="currentColor"/>
<path d="M140.968 28.9549H157.592V24.1176H146.796V1.63407H140.968V28.9549Z" fill="currentColor"/>
<path d="M165.783 28.9549H182.25V24.1176H171.533V17.6551H181.467V12.7404H171.533V6.62612H182.25V1.63407H165.783V28.9549Z" fill="currentColor"/>
<path d="M199.194 28.9549C207.564 28.9549 213.392 23.1502 213.392 15.2945C213.392 7.55487 207.408 1.63407 199.233 1.63407H190.941V28.9549H199.194ZM198.92 24.2724H196.691V6.47133H198.959C204.005 6.47133 207.525 10.1476 207.525 15.2558C207.525 20.48 204.044 24.2724 198.92 24.2724Z" fill="currentColor"/>
<path d="M235.587 29.4966C242.588 29.4966 248.924 25.2786 248.924 14.3657H235.508V18.8547H242.94C242.314 22.2214 239.693 24.8142 235.899 24.8142C230.384 24.8142 227.373 20.5187 227.373 15.2945C227.373 10.4572 230.541 6.16174 235.782 6.16174C238.246 6.16174 240.515 7.0131 242.666 9.64456L247.125 6.62612C243.84 2.71762 239.967 1.1697 235.665 1.1697C227.92 1.1697 221.388 7.0905 221.388 15.2945C221.388 23.4598 227.529 29.4966 235.587 29.4966Z" fill="currentColor"/>
<path d="M257.223 28.9549H273.69V24.1176H262.973V17.6551H272.908V12.7404H262.973V6.62612H273.69V1.63407H257.223V28.9549Z" fill="currentColor"/>
<path d="M300.723 6.62612H310.775V1.63407H294.973V28.9549H300.723V17.9646H309.992V13.05H300.723V6.62612Z" fill="currentColor"/>
<path d="M332.175 6.16174C337.259 6.16174 340.506 10.3024 340.506 15.3332C340.506 20.3639 337.259 24.5046 332.175 24.5046C327.051 24.5046 323.804 20.3639 323.804 15.3332C323.804 10.3024 327.051 6.16174 332.175 6.16174ZM332.175 1.131C324.195 1.131 317.781 7.24529 317.781 15.3332C317.781 23.4211 324.195 29.5353 332.175 29.5353C340.115 29.5353 346.529 23.4211 346.529 15.3332C346.529 7.24529 340.154 1.131 332.175 1.131Z" fill="currentColor"/>
<path d="M368.633 28.9549H375.165L366.794 16.9972L367.303 16.9198C370.393 16.0297 372.27 13.7079 372.27 9.87675C372.27 5.0395 368.437 1.63407 363.861 1.63407H355.373V28.9549H361.201V18.3903H361.67L368.633 28.9549ZM362.726 6.27784C364.995 6.27784 366.677 7.86445 366.677 10.225C366.677 12.663 364.682 13.9787 362.609 13.9787H361.005V6.27784H362.726Z" fill="currentColor"/>
<path d="M408.177 28.9549H414.709L406.339 16.9972L406.847 16.9198C409.937 16.0297 411.815 13.7079 411.815 9.87675C411.815 5.0395 407.982 1.63407 403.405 1.63407H394.918V28.9549H400.746V18.3903H401.215L408.177 28.9549ZM402.271 6.27784C404.54 6.27784 406.221 7.86445 406.221 10.225C406.221 12.663 404.227 13.9787 402.154 13.9787H400.55V6.27784H402.271Z" fill="currentColor"/>
<path d="M421.871 28.9549H438.338V24.1176H427.621V17.6551H437.556V12.7404H427.621V6.62612H438.338V1.63407H421.871V28.9549Z" fill="currentColor"/>
<path d="M452.779 6.62612H462.831V1.63407H447.029V28.9549H452.779V17.9646H462.049V13.05H452.779V6.62612Z" fill="currentColor"/>
<path d="M484.231 6.16174C489.316 6.16174 492.562 10.3024 492.562 15.3332C492.562 20.3639 489.316 24.5046 484.231 24.5046C479.107 24.5046 475.861 20.3639 475.861 15.3332C475.861 10.3024 479.107 6.16174 484.231 6.16174ZM484.231 1.131C476.252 1.131 469.837 7.24529 469.837 15.3332C469.837 23.4211 476.252 29.5353 484.231 29.5353C492.171 29.5353 498.586 23.4211 498.586 15.3332C498.586 7.24529 492.21 1.131 484.231 1.131Z" fill="currentColor"/>
<path d="M520.689 28.9549H527.221L518.851 16.9972L519.359 16.9198C522.449 16.0297 524.326 13.7079 524.326 9.87675C524.326 5.0395 520.493 1.63407 515.917 1.63407H507.429V28.9549H513.257V18.3903H513.727L520.689 28.9549ZM514.783 6.27784C517.051 6.27784 518.733 7.86445 518.733 10.225C518.733 12.663 516.738 13.9787 514.665 13.9787H513.062V6.27784H514.783Z" fill="currentColor"/>
<path d="M557.655 28.9549H563.522V0.898813L550.693 18.1581L548.972 20.5187L547.251 18.1581L534.383 0.898813V28.9549H540.25V18.8934L540.211 17.3842L541.11 18.8547L548.972 29.6127L549.05 29.574L556.834 18.8547L557.734 17.3842L557.655 18.8934V28.9549Z" fill="currentColor"/>
<path d="M604.073 28.9549H610.487L596.837 0.705323V0.666626L583.264 28.9549H589.601L591.556 24.3111H602.117L604.073 28.9549ZM596.798 11.5795H596.876L600.513 20.0156H593.121L596.798 11.5795Z" fill="currentColor"/>
<path d="M629.117 29.4966C633.615 29.4966 637.8 27.6778 641.203 23.305L636.901 20.1704C634.437 23.4984 632.012 24.5433 629.156 24.5433C624.267 24.5433 620.864 20.5574 620.864 15.4106C620.864 10.1863 624.267 6.16174 629.195 6.16174C633.107 6.16174 635.297 8.44492 636.783 10.5346L641.321 7.55487C637.957 2.98851 633.654 1.1697 629.078 1.1697C620.982 1.1697 614.841 7.36138 614.841 15.3332C614.841 22.9567 620.512 29.4966 629.117 29.4966Z" fill="currentColor"/>
<path d="M665.82 6.51002V1.63407H646.772V6.51002H653.382V28.9549H659.21V6.51002H665.82Z" fill="currentColor"/>
<path d="M673.58 28.9549H679.408V1.63407H673.58V28.9549Z" fill="currentColor"/>
<path d="M702.646 6.16174C707.731 6.16174 710.977 10.3024 710.977 15.3332C710.977 20.3639 707.731 24.5046 702.646 24.5046C697.522 24.5046 694.276 20.3639 694.276 15.3332C694.276 10.3024 697.522 6.16174 702.646 6.16174ZM702.646 1.131C694.667 1.131 688.252 7.24529 688.252 15.3332C688.252 23.4211 694.667 29.5353 702.646 29.5353C710.586 29.5353 717.001 23.4211 717.001 15.3332C717.001 7.24529 710.625 1.131 702.646 1.131Z" fill="currentColor"/>
<path d="M748.961 29.7288L749 29.7675V1.63407H743.172V15.5654L743.211 16.7263L742.155 15.5654L725.923 0.976208L725.845 0.898813V28.9549H731.672V14.1335L731.594 13.1274L732.416 14.0174L748.961 29.7288Z" fill="currentColor"/>
<path d="M0 74.4819H5.82795V47.1611H0V74.4819Z" fill="currentColor"/>
<path d="M38.6487 75.2559L38.6878 75.2946V47.1611H32.8598V61.0924L32.899 62.2534L31.8429 61.0924L15.6107 46.5033L15.5324 46.4259V74.4819H21.3604V59.6606L21.2822 58.6544L22.1036 59.5445L38.6487 75.2559Z" fill="currentColor"/>
<path d="M78.0903 52.0371V47.1611H59.0419V52.0371H65.6522V74.4819H71.4801V52.0371H78.0903Z" fill="currentColor"/>
<path d="M103.49 74.4819H109.358V47.1611H103.49V57.7644H91.7563V47.1611H85.8501V74.4819H91.7563V63.3756H103.49V74.4819Z" fill="currentColor"/>
<path d="M119.068 74.4819H135.535V69.6447H124.818V63.1821H134.752V58.2675H124.818V52.1532H135.535V47.1611H119.068V74.4819Z" fill="currentColor"/>
<path d="M180.872 75.3333L192.528 47.1611H186.309L181.302 60.3185L180.559 62.4082L179.699 60.2411L173.441 46.4259L167.378 60.4346L166.596 62.4082L165.892 60.4346L160.611 47.1611H154.431L166.126 75.3333L172.736 60.7441L173.441 58.8479L174.184 60.7054L180.872 75.3333Z" fill="currentColor"/>
<path d="M199.851 74.4819H216.318V69.6447H205.601V63.1821H215.536V58.2675H205.601V52.1532H216.318V47.1611H199.851V74.4819Z" fill="currentColor"/>
<path d="M232.598 74.985C237.487 74.985 241.203 71.5409 241.203 66.8584C241.203 58.1901 230.173 58.2288 230.173 54.0107C230.173 52.6563 231.033 51.4953 233.067 51.4953C234.632 51.4953 236.274 52.0371 238.23 53.5076L241.124 49.4443C238.426 47.432 235.805 46.6968 233.067 46.6968C226.848 46.6968 224.423 50.4892 224.423 54.2042C224.423 62.2147 235.414 62.3695 235.414 67.2067C235.414 69.2577 234.24 70.2639 232.402 70.2639C230.212 70.2639 228.217 69.1029 226.183 67.2067L222.897 71.1539C225.44 73.708 228.295 74.985 232.598 74.985Z" fill="currentColor"/>
<path d="M266.726 52.0371V47.1611H247.677V52.0371H254.287V74.4819H260.115V52.0371H266.726Z" fill="currentColor"/>
<path d="M274.485 74.4819H290.952V69.6447H280.235V63.1821H290.17V58.2675H280.235V52.1532H290.952V47.1611H274.485V74.4819Z" fill="currentColor"/>
<path d="M312.903 74.4819H319.435L311.065 62.5243L311.573 62.4469C314.663 61.5568 316.541 59.2349 316.541 55.4038C316.541 50.5666 312.708 47.1611 308.131 47.1611H299.644V74.4819H305.471V63.9174H305.941L312.903 74.4819ZM306.997 51.8049C309.266 51.8049 310.947 53.3915 310.947 55.7521C310.947 58.1901 308.953 59.5058 306.88 59.5058H305.276V51.8049H306.997Z" fill="currentColor"/>
<path d="M349.713 75.2559L349.752 75.2946V47.1611H343.924V61.0924L343.963 62.2534L342.907 61.0924L326.675 46.5033L326.597 46.4259V74.4819H332.425V59.6606L332.347 58.6544L333.168 59.5445L349.713 75.2559Z" fill="currentColor"/>
<path d="M380.706 74.4819C387.043 74.4819 389.624 70.8056 389.624 66.5875C389.624 63.5691 388.099 60.9763 385.087 60.0863V60.0089C387.551 58.8866 388.529 56.7582 388.529 54.359C388.529 50.0248 384.891 47.1611 379.963 47.1611H372.062V74.4819H380.706ZM379.885 51.7662C381.567 51.7662 383.249 52.7724 383.249 54.9781C383.249 57.0678 381.684 58.5384 379.963 58.5384H377.655V51.7662H379.885ZM379.846 62.563C382.31 62.563 383.953 63.9561 383.953 66.1619C383.953 68.7159 382.271 69.993 380.12 69.993H377.655V62.563H379.846Z" fill="currentColor"/>
<path d="M415.601 74.4819H422.016L408.365 46.2324V46.1937L394.792 74.4819H401.129L403.084 69.8382H413.645L415.601 74.4819ZM408.326 57.1065H408.404L412.042 65.5427H404.649L408.326 57.1065Z" fill="currentColor"/>
<path d="M429.177 74.4819H445.801V69.6447H435.005V47.1611H429.177V74.4819Z" fill="currentColor"/>
<path d="M469.442 74.4819H476.56L464.513 60.3959L476.13 47.1611H469.246L459.898 58.1127H459.702V47.1611H453.992V74.4819H459.702V63.2208H459.937L469.442 74.4819Z" fill="currentColor"/>
<path d="M501.847 74.4819H508.261L494.611 46.2324V46.1937L481.038 74.4819H487.375L489.33 69.8382H499.891L501.847 74.4819ZM494.572 57.1065H494.65L498.287 65.5427H490.895L494.572 57.1065Z" fill="currentColor"/>
<path d="M538.539 75.2559L538.579 75.2946V47.1611H532.751V61.0924L532.79 62.2534L531.734 61.0924L515.501 46.5033L515.423 46.4259V74.4819H521.251V59.6606L521.173 58.6544L521.994 59.5445L538.539 75.2559Z" fill="currentColor"/>
<path d="M555.885 74.985C560.774 74.985 564.49 71.5409 564.49 66.8584C564.49 58.1901 553.46 58.2288 553.46 54.0107C553.46 52.6563 554.321 51.4953 556.355 51.4953C557.919 51.4953 559.562 52.0371 561.518 53.5076L564.412 49.4443C561.713 47.432 559.093 46.6968 556.355 46.6968C550.135 46.6968 547.71 50.4892 547.71 54.2042C547.71 62.2147 558.701 62.3695 558.701 67.2067C558.701 69.2577 557.528 70.2639 555.69 70.2639C553.499 70.2639 551.504 69.1029 549.471 67.2067L546.185 71.1539C548.727 73.708 551.583 74.985 555.885 74.985Z" fill="currentColor"/>
</svg>
