<svg width="466" height="87" viewBox="0 0 466 87" fill="none" xmlns="http://www.w3.org/2000/svg">
<g clip-path="url(#clip0_236_3282)">
<path fill-rule="evenodd" clip-rule="evenodd" d="M125.492 68.1512V0.00012207H146.28L173.661 53.2596V0.00012207H187.567V68.1512H166.78L139.399 14.8917V68.1512H125.492ZM219.432 69.5181C205.957 69.5181 194.017 59.0628 194.017 43.6197C194.017 28.1766 205.957 17.7213 219.432 17.7213C232.907 17.7213 244.847 28.1766 244.847 43.6197C244.847 59.0628 232.907 69.5181 219.432 69.5181ZM219.432 56.7847C226.026 56.7847 231.468 52.6122 231.468 43.6197C231.468 34.6272 226.026 30.4547 219.432 30.4547C212.839 30.4547 207.396 34.6272 207.396 43.6197C207.396 52.6122 212.839 56.7847 219.432 56.7847ZM263.789 34.9869V68.1512H250.41V19.0882H263.789V30.5266C266.186 24.076 270.214 18.6326 277.072 18.6326H281.795V34.9869H263.789ZM299.801 68.1512L288.388 19.0882H302.487L310.878 58.8949L319.798 19.0882H336.917L346.555 57.7919L354.228 19.0882H367.775L356.362 68.1512H337.372L328.093 30.8144L319.702 68.1512H299.825H299.801ZM398.105 68.1512V60.7894C394.436 65.6093 389.281 69.0625 382.496 69.0625C373.217 69.0625 367.511 62.6118 367.511 54.5306C367.511 45.706 374.368 39.711 386.86 39.711H398.105V35.7063C398.105 31.6057 395.419 29.5195 390.432 29.5195C385.445 29.5195 383.479 31.6057 383.215 34.6032H370.292C371.635 25.323 379.307 17.6973 391.775 17.6973C402.828 17.6973 411.484 23.5245 411.484 34.6992V68.1512H398.105ZM388.298 57.6C392.303 57.6 398.105 56.3291 398.105 50.2382V48.7754H385.805C382.137 48.7754 380.003 50.0463 380.003 52.876C380.003 55.7056 382.688 57.6 388.298 57.6ZM431.912 86.3041L437.618 68.1272H431.025L416.039 19.0642H430.305L440.927 58.5832L452.436 19.0642H465.814L444.763 86.3041H431.936H431.912Z" fill="black"/>
<path d="M93.5797 2.15851H-0.000488281V66.9044H93.5797V2.15851Z" fill="white"/>
<path fill-rule="evenodd" clip-rule="evenodd" d="M-0.000488281 66.9042H25.5105V43.1641H-0.000488281V66.9042Z" fill="#C8102E"/>
<path fill-rule="evenodd" clip-rule="evenodd" d="M-0.000488281 25.8987H25.5105V2.15851H-0.000488281V25.8987Z" fill="#C8102E"/>
<path fill-rule="evenodd" clip-rule="evenodd" d="M93.5797 30.4789V38.8479H38.29V66.9044H29.8742V38.8479H-0.000488281V30.4789H29.8742V2.15851H38.29V30.4789H93.5797Z" fill="#00205B"/>
<path fill-rule="evenodd" clip-rule="evenodd" d="M42.5337 66.9042H93.5796V43.1641H42.5337V66.9042Z" fill="#C8102E"/>
<path fill-rule="evenodd" clip-rule="evenodd" d="M42.5337 25.8987H93.5796V2.15851H42.5337V25.8987Z" fill="#C8102E"/>
</g>
<defs>
<clipPath id="clip0_236_3282">
<rect width="465.791" height="86.3279" fill="white"/>
</clipPath>
</defs>
</svg>
