<svg width="198" height="38" viewBox="0 0 198 38" fill="none" xmlns="http://www.w3.org/2000/svg">
<g clip-path="url(#clip0_896_34078)">
<path fill-rule="evenodd" clip-rule="evenodd" d="M53.1328 29.7693V0.784302H61.9343L73.5274 23.4358V0.784302H79.4154V29.7693H70.6139L59.0208 7.11776V29.7693H53.1328ZM92.9069 30.3506C87.2017 30.3506 82.1462 25.904 82.1462 19.3359C82.1462 12.7679 87.2017 8.32122 92.9069 8.32122C98.6121 8.32122 103.668 12.7679 103.668 19.3359C103.668 25.904 98.6121 30.3506 92.9069 30.3506ZM92.9069 24.9351C95.6986 24.9351 98.003 23.1605 98.003 19.3359C98.003 15.5114 95.6986 13.7368 92.9069 13.7368C90.1152 13.7368 87.8108 15.5114 87.8108 19.3359C87.8108 23.1605 90.1152 24.9351 92.9069 24.9351ZM111.687 15.6644V29.7693H106.023V8.90255H111.687V13.7674C112.703 11.0239 114.408 8.70877 117.311 8.70877H119.311V15.6644H111.687ZM126.935 29.7693L122.103 8.90255H128.072L131.625 25.8326L135.402 8.90255H142.65L146.731 25.3634L149.979 8.90255H155.715L150.883 29.7693H142.843L138.914 13.8898L135.361 29.7693H126.945H126.935ZM168.557 29.7693V26.6383C167.004 28.6882 164.821 30.1569 161.948 30.1569C158.019 30.1569 155.603 27.4134 155.603 23.9764C155.603 20.2232 158.507 17.6735 163.796 17.6735H168.557V15.9703C168.557 14.2263 167.42 13.339 165.308 13.339C163.197 13.339 162.364 14.2263 162.253 15.5012H156.781C157.349 11.5542 160.598 8.31102 165.877 8.31102C170.557 8.31102 174.221 10.7893 174.221 15.542V29.7693H168.557ZM164.405 25.2818C166.1 25.2818 168.557 24.7413 168.557 22.1508V21.5287H163.349C161.796 21.5287 160.892 22.0692 160.892 23.2727C160.892 24.4761 162.029 25.2818 164.405 25.2818ZM182.871 37.4898L185.287 29.7591H182.495L176.15 8.89235H182.19L186.688 25.7L191.56 8.89235H197.225L188.312 37.4898H182.881H182.871Z" fill="white"/>
<path d="M39.6218 1.70215H0V29.2389H39.6218V1.70215Z" fill="white"/>
<path fill-rule="evenodd" clip-rule="evenodd" d="M0 29.2389H10.8013V19.1421H0V29.2389Z" fill="#C8102E"/>
<path fill-rule="evenodd" clip-rule="evenodd" d="M0 11.799H10.8013V1.70215H0V11.799Z" fill="#C8102E"/>
<path fill-rule="evenodd" clip-rule="evenodd" d="M39.6218 13.7469V17.3063H16.2122V29.2389H12.6489V17.3063H0V13.7469H12.6489V1.70215H16.2122V13.7469H39.6218Z" fill="#00205B"/>
<path fill-rule="evenodd" clip-rule="evenodd" d="M18.0088 29.2389H39.6216V19.1421H18.0088V29.2389Z" fill="#C8102E"/>
<path fill-rule="evenodd" clip-rule="evenodd" d="M18.0088 11.799H39.6216V1.70215H18.0088V11.799Z" fill="#C8102E"/>
</g>
<defs>
<clipPath id="clip0_896_34078">
<rect width="197.216" height="36.7157" fill="white" transform="translate(0 0.784302)"/>
</clipPath>
</defs>
</svg>
