<svg width="14" height="12" viewBox="0 0 14 12" fill="none" xmlns="http://www.w3.org/2000/svg">
<path d="M0.333496 11.3333V9.76667C0.333496 9.3889 0.427941 9.04167 0.616829 8.72501C0.805718 8.40834 1.08905 8.16668 1.46683 8.00001C2.26683 7.64445 3.00016 7.3889 3.66683 7.23334C4.3335 7.07779 5.00016 7.00001 5.66683 7.00001C5.98905 7.00001 6.33072 7.01945 6.69183 7.05834C7.05294 7.09723 7.42239 7.16668 7.80016 7.26667L6.9835 8.08334C6.76127 8.06112 6.54183 8.04168 6.32516 8.02501C6.1085 8.00834 5.88905 8.00001 5.66683 8.00001C5.02239 8.00001 4.43627 8.05834 3.9085 8.17501C3.38072 8.29168 2.70016 8.53334 1.86683 8.90001C1.67794 8.9889 1.54183 9.11667 1.4585 9.28334C1.37516 9.45001 1.3335 9.61112 1.3335 9.76667V10.3333H6.65016L7.65016 11.3333H0.333496ZM9.41683 11.6L7.06683 9.25001L7.76683 8.55001L9.41683 10.2L12.9668 6.65001L13.6668 7.35001L9.41683 11.6ZM5.66683 5.96667C4.9335 5.96667 4.3335 5.73334 3.86683 5.26667C3.40016 4.80001 3.16683 4.20001 3.16683 3.46667C3.16683 2.73334 3.40016 2.13334 3.86683 1.66667C4.3335 1.20001 4.9335 0.966675 5.66683 0.966675C6.40016 0.966675 7.00016 1.20001 7.46683 1.66667C7.9335 2.13334 8.16683 2.73334 8.16683 3.46667C8.16683 4.20001 7.9335 4.80001 7.46683 5.26667C7.00016 5.73334 6.40016 5.96667 5.66683 5.96667ZM5.66683 4.96667C6.10016 4.96667 6.4585 4.82501 6.74183 4.54168C7.02516 4.25834 7.16683 3.90001 7.16683 3.46667C7.16683 3.03334 7.02516 2.67501 6.74183 2.39167C6.4585 2.10834 6.10016 1.96667 5.66683 1.96667C5.2335 1.96667 4.87516 2.10834 4.59183 2.39167C4.3085 2.67501 4.16683 3.03334 4.16683 3.46667C4.16683 3.90001 4.3085 4.25834 4.59183 4.54168C4.87516 4.82501 5.2335 4.96667 5.66683 4.96667Z" fill="white"/>
</svg>
