<svg width="199" height="30" viewBox="0 0 199 30" fill="none" xmlns="http://www.w3.org/2000/svg">
<g clip-path="url(#clip0_896_34079)">
<path d="M3.83553 11.4127C4.91841 7.84844 6.98573 8.93753 7.87173 4.91118L7.47795 4.71316C6.49351 6.39631 5.31219 6.79234 4.62308 7.78243L4.2293 7.68342C4.42619 6.39631 4.03242 5.20821 5.50908 3.36004L5.21374 3.16203C1.76821 5.04319 2.94953 10.5547 3.44175 11.4457H3.83553V11.4127ZM7.77328 23.6568C7.77328 23.6568 7.87173 23.4588 8.06861 23.3598C5.50908 19.1354 7.87173 19.1354 5.60752 15.0761C5.60752 15.0761 5.31219 15.1751 5.21374 15.1751C5.50908 16.8582 4.72153 17.3533 5.60752 19.8945L5.21374 20.0925C4.13086 18.1123 2.06354 17.0232 1.47288 14.878L1.0791 14.9771C1.0791 21.5776 7.47795 23.5578 7.77328 23.6568ZM5.31219 6.09928C7.87173 4.21812 7.37951 3.22803 9.05305 1.7759C9.05305 1.7759 8.95461 1.57789 8.85616 1.47888C5.90285 3.06302 5.41063 4.35013 4.91841 5.90127C4.91841 5.90127 5.1153 6.00028 5.31219 6.09928ZM4.13086 17.6173L4.52464 17.4193C4.2293 13.6569 6.29663 13.7559 5.70596 9.63059L5.31219 9.53158C4.72153 11.3137 4.13086 11.1157 3.83553 13.5579H3.44175C2.85109 11.0827 2.06354 11.6768 2.35887 8.24447C2.26043 8.24447 2.16198 8.24447 1.9651 8.14546C-0.167852 12.9969 3.44175 16.9242 4.13086 17.6173ZM14.3362 25.505C14.3362 25.505 14.3362 25.307 14.4346 25.2079C10.3985 25.406 10.8907 22.3367 7.67484 20.3895C7.5764 20.4885 7.37951 20.5875 7.37951 20.5875C8.2655 22.1717 8.16706 23.0628 9.8406 24.9109L9.64371 25.2079C7.28106 23.7228 5.80441 24.3169 3.37612 21.7426C3.37612 21.7426 3.27768 21.8417 3.08079 21.9407C6.88729 28.4752 11.4813 27.1881 14.3362 25.505ZM18.9302 25.802C14.73 24.4159 12.3673 29.1683 7.34669 27.0891L7.14981 27.3861C12.1376 32.0065 14.6972 25.604 18.1427 26.198C17.1583 26.6931 16.1738 27.4851 14.9925 28.6732C15.2878 29.0693 15.4847 29.2673 15.9769 29.7623C17.0598 27.8812 18.0443 26.8911 18.9302 26.4951C19.8162 26.8911 20.8007 27.8812 21.8836 29.7623C22.3758 29.2673 22.5727 29.0693 22.868 28.6732C21.6867 27.4851 20.7022 26.6931 19.7178 26.198C23.1633 25.604 25.6901 32.0065 30.7107 27.3861L30.5138 27.0891C25.4932 29.1683 23.0649 24.4489 18.9302 25.802ZM28.2496 25.2079L28.0527 24.9109C29.7262 23.0298 29.6278 22.1387 30.5138 20.5875C30.5138 20.5875 30.3169 20.4885 30.2185 20.3895C26.9698 22.3697 27.462 25.406 23.4587 25.2079C23.5571 25.307 23.5571 25.505 23.5571 25.505C26.412 27.1881 31.006 28.4752 34.8453 21.9407C34.6484 21.8417 34.55 21.7426 34.55 21.7426C32.0889 24.3499 30.6122 23.7558 28.2496 25.2079ZM33.2702 7.78243C32.5811 6.79234 31.3998 6.39631 30.4154 4.71316L30.0216 4.91118C30.9076 8.93753 32.9749 7.88144 34.0578 11.4127H34.4515C34.9438 10.5217 36.1251 5.01019 32.6796 3.12903L32.3842 3.32704C33.8609 5.20821 33.4671 6.39631 33.664 7.65042L33.2702 7.78243ZM32.5811 6.09928C32.778 6.00028 32.9749 5.90127 32.9749 5.90127C32.4827 4.31713 31.9905 3.03002 29.0371 1.47888C28.9387 1.57789 28.8403 1.7759 28.8403 1.7759C30.5138 3.22803 30.0216 4.21812 32.5811 6.09928ZM32.2858 15.0761C30.0216 19.1024 32.3842 19.1024 29.8247 23.3598C30.0216 23.4588 30.12 23.6568 30.12 23.6568C30.4154 23.5578 36.7814 21.5776 36.7814 14.9771L36.3876 14.878C35.7969 17.0562 33.7296 18.1453 32.6467 20.0925L32.253 19.8945C33.139 17.3203 32.3514 16.8252 32.6467 15.1751C32.5811 15.1751 32.2858 15.0761 32.2858 15.0761ZM34.4187 13.5909H34.025C33.7296 11.1157 33.139 11.3137 32.5483 9.56459L32.1545 9.66359C31.5639 13.789 33.6312 13.6899 33.3359 17.4523L33.7296 17.6503C34.4187 16.9572 38.0283 13.0299 35.8954 8.17846C35.6985 8.27747 35.6001 8.27747 35.5016 8.27747C35.7969 11.7098 35.0094 11.1157 34.4187 13.5909Z" fill="white"/>
<path d="M27.0675 20.3896L25.3939 18.7065C26.7722 17.2213 27.5597 15.2412 27.6582 13.195H30.1192C30.0208 15.9672 28.8395 18.5084 27.0675 20.3896ZM7.77251 13.195H10.2336C10.3321 15.2742 11.1196 17.2213 12.4978 18.7065L10.8243 20.3896C9.01947 18.5084 7.87096 15.9672 7.77251 13.195ZM10.7915 5.10927L12.465 6.79242C11.0868 8.27755 10.2992 10.2577 10.2008 12.3039H7.7397C7.87096 9.53166 9.01947 6.99044 10.7915 5.10927ZM24.5408 12.3039C24.4423 11.1158 23.9501 9.92769 23.1626 9.03662L24.8361 7.35347C26.1159 8.64058 26.805 10.4227 26.9034 12.2709H24.5408V12.3039ZM23.1626 16.4623C23.9501 15.5712 24.4423 14.3831 24.5408 13.195H26.9034C26.805 15.0761 26.1159 16.8583 24.8361 18.1124L23.1626 16.4623ZM19.3232 21.5777C21.489 21.4787 23.3594 20.5876 24.8033 19.3005L26.5753 20.9837C24.6064 22.7658 22.0797 23.8549 19.3232 23.9539V21.5777ZM13.0557 19.3005C14.5323 20.5876 16.4027 21.4787 18.5357 21.5777V23.9539C15.7793 23.8549 13.2525 22.7658 11.2837 20.9837L13.0557 19.3005ZM13.351 13.195C13.4494 14.3831 13.9417 15.5712 14.7292 16.4623L13.0557 18.1454C11.7759 16.8583 11.0868 15.0761 10.9883 13.228H13.351V13.195ZM14.7292 9.03662C13.9417 9.92769 13.4494 11.1158 13.351 12.3039H10.9883C11.0868 10.4227 11.7759 8.64058 13.0557 7.38647L14.7292 9.03662ZM18.5357 3.92117C16.3699 4.02018 14.4995 4.91126 13.0557 6.19837L11.2837 4.51522C13.2525 2.73306 15.7793 1.64396 18.5357 1.54496V3.92117ZM22.5719 8.47557C21.6859 7.78251 20.603 7.28746 19.3232 7.18846V4.71324C21.1937 4.81225 22.9657 5.60432 24.3111 6.79242L22.5719 8.47557ZM21.2921 12.3039C21.1937 12.0069 21.0952 11.6108 20.8983 11.3138L22.5719 9.63067C23.261 10.4227 23.6548 11.3138 23.7532 12.3039H21.2921ZM20.8983 14.1851C21.0952 13.888 21.1937 13.492 21.2921 13.195H23.7532C23.6548 14.1851 23.261 15.0761 22.5719 15.8682L20.8983 14.1851ZM19.3232 18.3104C20.603 18.2114 21.6859 17.7164 22.5719 17.0233L24.3439 18.7065C22.9657 19.8946 21.1937 20.6866 19.3561 20.7856V18.3104H19.3232ZM15.3199 17.0233C16.2059 17.7164 17.2887 18.2114 18.5685 18.3104V20.7856C16.6981 20.6866 14.9261 19.8946 13.5807 18.7065L15.3199 17.0233ZM16.5996 13.195C16.6981 13.492 16.7965 13.888 16.9934 14.1851L15.3199 15.8682C14.6308 15.0761 14.237 14.1851 14.1385 13.195H16.5996ZM16.9934 11.3138C16.7965 11.6108 16.6981 12.0069 16.5996 12.3039H14.1385C14.237 11.3138 14.6308 10.4227 15.3199 9.63067L16.9934 11.3138ZM18.5357 7.18846C17.2559 7.28746 16.173 7.78251 15.2871 8.47557L13.5151 6.79242C14.8933 5.60432 16.6653 4.81225 18.5029 4.71324V7.18846H18.5357ZM20.3077 10.8188C20.0124 10.6208 19.717 10.4227 19.3232 10.3237V7.94752C20.3077 8.04653 21.2921 8.44256 21.9812 9.03662L20.3077 10.8188ZM19.3232 15.1751C19.717 15.0761 20.0124 14.8781 20.3077 14.6801L22.0797 16.4623C21.2921 17.0563 20.3077 17.4523 19.3232 17.5514V15.1751ZM17.5513 14.6801C17.8466 14.8781 18.1419 15.0761 18.5357 15.1751V17.5514C17.5513 17.4523 16.5668 17.0563 15.8777 16.4623L17.5513 14.6801ZM18.5357 10.3237C18.1419 10.4227 17.8466 10.6208 17.5513 10.8188L15.8777 9.03662C16.5668 8.44256 17.5513 8.04653 18.5357 7.94752V10.3237ZM20.5046 12.6999C20.5046 13.591 19.8155 14.3831 18.9295 14.3831C18.0435 14.3831 17.3544 13.591 17.3544 12.6999C17.3544 11.9079 18.0435 11.1158 18.9295 11.1158C19.8155 11.1158 20.5046 11.9079 20.5046 12.6999ZM24.8361 6.19837C23.3594 4.91126 21.489 4.02018 19.3561 3.92117V1.54496C22.1125 1.64396 24.6392 2.73306 26.6081 4.51522L24.8361 6.19837ZM30.1192 12.3039H27.6582C27.5597 10.2247 26.7722 8.27755 25.3939 6.79242L27.0675 5.10927C28.8395 6.99044 30.0208 9.53166 30.1192 12.3039ZM18.9295 0.68689C12.3666 0.68689 6.95215 6.09936 6.95215 12.6999C6.95215 19.3995 12.3337 24.812 18.9295 24.812C25.4924 24.812 30.9068 19.3995 30.9068 12.6999C30.9068 6.09936 25.4924 0.68689 18.9295 0.68689Z" fill="white"/>
<path d="M22.1782 15.4723L21.7844 15.1753L21.686 14.7793L21.9813 14.5812L22.2766 14.8783L22.3751 15.1753L22.1782 15.4723ZM21.4891 15.7693L21.1938 15.9674H20.8L20.8984 15.5713L21.0953 15.4723L21.4891 15.6703V15.7693ZM23.8517 15.3733L24.0486 14.7793L24.2455 15.1753L24.4424 15.0763L24.5409 14.7793L24.7377 14.8783L25.8206 14.5812L25.5253 13.9872L25.23 13.6902L24.8362 13.0961L25.3284 12.106L25.6237 11.908L25.9191 11.512L26.2144 10.1258L26.116 9.6308L25.7222 9.5318L25.8206 9.13576L25.5253 9.03675L25.7222 8.73973L25.6237 8.64072L25.3284 8.73973L24.9346 8.14568L24.6393 8.04667L24.7377 7.84865L22.8673 6.1655V6.26451L22.9658 6.85856L24.8362 9.13576V9.82882L25.5253 10.3239L25.7222 11.314L25.5253 11.71L25.23 11.809L25.4268 11.1159L24.9346 10.5219L24.5409 10.8189L24.4424 10.7199L24.5409 10.4229L24.0486 9.92783L22.9658 9.72981L22.572 10.4229L21.9813 9.6308H21.5875L21.8829 9.82882L21.686 10.2249H21.3907L20.8 10.9179H20.3078L19.914 10.7199L20.1109 10.4229L20.7015 10.1258L20.8 9.6308L20.7015 9.43279L20.1109 9.92783L18.6342 9.5318L18.142 9.72981L18.0436 10.4229L15.9762 9.82882L14.2043 10.7199L14.1058 11.0169L13.712 10.9179L13.5152 11.908L13.4167 12.6011L12.7276 13.4921L12.826 14.4822L11.9401 13.6902L11.6447 13.7892L10.9556 14.2842L10.8572 14.8783L10.9556 15.2743L10.7587 15.5713L9.77429 15.0763L9.47896 15.1753L9.38051 15.3733L9.28207 15.4723L9.08518 15.2743H8.88829L8.69141 15.9674L8.88829 16.7594L9.5774 17.2545L9.77429 16.9574L10.1681 17.5515L11.0541 18.0465L11.3494 18.6406L12.4323 19.3336L12.9245 19.2346L13.6136 19.5317L14.3027 19.1356L14.8934 19.2346L15.0903 19.0366L13.9089 17.5515L14.1058 17.1555L13.712 16.4624L13.8105 15.6703L13.2198 14.2842L13.1214 13.5911L13.6136 13.2941L14.2043 11.71H14.4996L14.598 13.5911H13.9089L13.8105 14.2842L14.0074 14.4822L14.2043 13.8882L15.9762 14.1852L15.8778 14.3832L16.5669 14.9773L17.6498 13.8882L18.0436 13.1951L17.9451 12.9971L17.7482 13.0961L17.6498 13.2941L16.0747 13.6902L16.6654 12.5021L17.1576 12.6011L17.5513 12.7991H17.8467L17.7482 12.106L18.142 11.908L18.2405 11.512L18.8311 11.314L18.6342 10.8189L18.9296 10.6209L19.4218 10.9179L19.028 11.1159L19.3233 11.512L19.4218 11.314L19.914 11.908H20.2093V12.106L20.4062 12.304L20.1109 12.7001L20.5047 13.0961V13.4921H20.7015L20.3078 14.1852H19.8156L19.028 15.5713L19.1264 15.7693L19.028 15.8683V16.0664L19.2249 16.3634L18.7327 16.4624V17.1555L19.8156 16.4624L20.5047 16.7594L20.8 16.6604V16.5614L20.9969 16.3634L21.1938 16.5614L21.686 16.2644L21.8829 16.5614L21.5875 16.9574L20.8 17.2545V17.5515L20.1109 17.4525L19.914 17.1555H19.5202L19.2249 17.3535L18.6342 17.2545L17.6498 17.8485L17.3545 18.5416L17.6498 19.2346L19.7171 20.3237L20.4062 20.2247L20.3078 20.8188L20.6031 21.4128L22.1782 22.6999H22.4735L23.458 22.0069L24.4424 20.1257L24.1471 19.9277L24.6393 19.1356L23.5564 18.9376V18.5416L24.1471 18.1455L24.2455 17.4525L24.1471 16.7594L23.9502 16.8584L23.8517 17.3535L23.7533 17.5515L22.7689 17.7495L21.686 17.0564L21.8829 16.7594L23.5564 17.2545L24.0486 15.8683L23.7533 15.5713L23.458 15.6703L22.7689 15.9674L22.8673 15.7693L23.8517 15.3733ZM25.5909 17.8155L25.4925 17.9145V18.1125L25.394 18.4096L25.2956 19.1026L25.4925 19.3006H25.9847L26.1816 18.9046L25.9847 18.2116L25.5909 17.8155ZM19.1264 13.2941L19.028 13.1951H18.4373L18.2405 13.6902L17.6498 14.1852L18.142 14.4822L18.9296 13.9872L19.1264 13.2941ZM26.3785 11.611L26.4769 11.512V11.0169L26.28 11.2149L26.1816 11.512L25.8863 12.106L25.9847 12.6011L26.5754 12.9971L26.4769 11.908L26.3785 11.611ZM25.8863 13.9872V14.2842L26.28 14.5812L26.4769 14.3832V14.1852L26.1816 13.9872H25.8863ZM27.2645 7.2876L26.7722 7.08958L26.8707 6.59454L25.0003 4.61437L23.7205 4.31734L23.622 4.91139L24.2127 5.30743L24.0158 6.29751L24.508 6.39652L24.9018 6.79256L25.0003 7.48562L25.4925 7.68364L26.0831 8.57471L26.7722 8.17868L27.2645 9.16876L27.9536 8.87174V8.57471L27.2645 7.2876ZM25.4268 4.31734L25.1315 3.8223H24.6393V4.02032L25.3284 4.31734H25.4268ZM20.4062 3.12924L21.0953 2.83222L21.4891 3.03022L21.7844 2.7332L21.8829 2.6342L21.1938 2.23816H20.9969L20.2093 2.6342H20.0124L19.914 2.7332L20.3078 3.12924H20.4062Z" fill="white"/>
<path d="M71.7949 1.34692V21.9407C71.7949 26.0661 68.7431 29.7294 58.4721 29.7294C48.2012 29.7294 45.1494 26.0661 45.1494 21.9407V1.34692H52.7952V21.3467C52.7952 23.6239 54.3703 24.911 58.4721 24.911C62.574 24.911 64.2475 23.6239 64.2475 21.3467V1.34692H71.7949Z" fill="white"/>
<path d="M85.511 10.1257V28.8713H78.3574V1.34692H87.7752L99.3259 20.9836V1.34692H106.512V28.8713H97.0946L85.511 10.1257Z" fill="white"/>
<path d="M159.639 4.5152H151.304V15.8682H159.639C164.134 15.8682 165.906 14.9771 165.906 11.7428V8.67356C165.906 5.7033 164.167 4.5152 159.639 4.5152ZM146.611 1.34692H159.836C167.678 1.34692 170.435 3.92115 170.435 8.14551V12.1719C170.435 16.3962 167.678 18.9705 159.836 18.9705H151.304V28.8383H146.611V1.34692Z" fill="white"/>
<path d="M135.52 22.1718C135.52 25.538 132.764 26.3961 126.988 26.3961C121.311 26.3961 118.555 25.505 118.555 22.1718V8.07953C118.555 4.71324 121.311 3.95417 126.988 3.95417C132.764 3.95417 135.52 4.74624 135.52 8.07953V22.1718ZM126.988 0.68689C117.57 0.68689 113.862 3.45912 113.862 7.98052V22.2708C113.862 26.8912 117.603 29.5644 126.988 29.5644C136.406 29.5644 140.212 26.8912 140.212 22.2708V7.98052C140.245 3.42612 136.406 0.68689 126.988 0.68689Z" fill="white"/>
<path d="M186.022 29.4654C182.576 29.4654 178.967 28.9703 175.816 27.9802L176.604 25.109C179.951 25.9011 182.773 26.1981 186.219 26.1981C191.994 26.1981 193.274 25.109 193.274 21.9737C193.274 18.2114 193.175 17.8484 185.726 16.5613C176.899 15.0761 175.816 13.69 175.816 7.98051C175.816 3.16209 178.474 0.884888 187.498 0.884888C190.649 0.884888 193.766 1.18192 196.719 1.77597L196.326 4.84523C193.372 4.35019 190.649 4.05317 187.597 4.05317C181.625 4.05317 180.542 4.94424 180.542 8.07952C180.542 11.9409 180.542 12.1059 187.794 13.492C197.507 15.3731 197.999 16.5613 197.999 21.8747C197.966 26.6931 196.129 29.4654 186.022 29.4654Z" fill="white"/>
</g>
<defs>
<clipPath id="clip0_896_34079">
<rect width="197.216" height="29.3726" fill="white" transform="translate(0.980469 0.455811)"/>
</clipPath>
</defs>
</svg>
